<svg width="320" height="133" viewBox="0 0 320 133" fill="none" xmlns="http://www.w3.org/2000/svg">
<path d="M121.032 93.9135C116.239 93.9135 112.124 93.0663 108.687 91.372C105.25 89.6776 102.442 87.475 100.264 84.764C98.1339 82.0531 96.5606 79.1001 95.544 75.905C94.5273 72.7099 94.019 69.6359 94.019 66.6829V65.0854C94.019 61.7935 94.5273 58.55 95.544 55.355C96.609 52.1599 98.2307 49.2553 100.409 46.6412C102.588 44.027 105.347 41.9454 108.687 40.3963C112.076 38.7988 116.07 38 120.669 38C125.461 38 129.625 38.8714 133.158 40.6141C136.741 42.3085 139.597 44.729 141.727 47.8756C143.857 50.9739 145.14 54.6046 145.576 58.7679H135.192C134.804 56.3474 133.933 54.3142 132.578 52.6682C131.271 50.9739 129.6 49.7152 127.567 48.8922C125.534 48.0209 123.234 47.5852 120.669 47.5852C118.055 47.5852 115.731 48.0451 113.698 48.9649C111.664 49.8362 109.97 51.0949 108.615 52.7408C107.259 54.3868 106.218 56.3232 105.492 58.55C104.814 60.7769 104.476 63.2458 104.476 65.9568C104.476 68.5709 104.814 70.9914 105.492 73.2182C106.218 75.4451 107.283 77.4057 108.687 79.1001C110.091 80.746 111.81 82.0289 113.843 82.9486C115.925 83.8684 118.321 84.3283 121.032 84.3283C125.001 84.3283 128.342 83.3601 131.053 81.4237C133.812 79.4389 135.482 76.6796 136.063 73.1456H146.447C145.963 76.9216 144.68 80.3829 142.598 83.5296C140.517 86.6762 137.661 89.1935 134.03 91.0815C130.399 92.9695 126.066 93.9135 121.032 93.9135Z" fill="white"/>
<path d="M150.719 92.5338V38H160.812V59.8023C161.821 57.3179 163.249 55.3998 165.097 54.0479C167.13 52.5956 169.696 51.8695 172.794 51.8695H173.229C177.732 51.8695 181.144 53.4186 183.468 56.5168C185.792 59.615 186.954 64.1172 186.954 70.0232V92.5338H176.86V69.0792C176.86 66.5619 176.134 64.5771 174.682 63.1248C173.278 61.6725 171.414 60.9463 169.09 60.9463C166.621 60.9463 164.612 61.7693 163.063 63.4152C161.563 65.0128 160.812 67.1186 160.812 69.7327V92.5338H150.719Z" fill="white"/>
<path fill-rule="evenodd" clip-rule="evenodd" d="M218.065 84.9404V92.5338H226.052V68.0626C226.052 64.3834 225.35 61.4062 223.946 59.1309C222.591 56.8557 220.558 55.1855 217.847 54.1205C215.184 53.0555 211.82 52.523 207.753 52.523C206.446 52.523 205.042 52.5472 203.542 52.5956C202.089 52.5956 200.661 52.644 199.257 52.7408C197.853 52.8377 196.595 52.9345 195.481 53.0313V61.5999C196.837 61.503 198.362 61.4304 200.056 61.382C201.799 61.2852 203.517 61.2126 205.212 61.1642C206.906 61.1158 208.358 61.0916 209.569 61.0916C211.892 61.0916 213.611 61.6483 214.724 62.7617C215.838 63.8751 216.394 65.5695 216.394 67.8447V68.2078H208.334C204.849 68.2078 201.799 68.6677 199.185 69.5875C196.619 70.5073 194.61 71.887 193.158 73.7265C191.754 75.5661 191.052 77.9382 191.052 80.8428C191.052 83.5054 191.633 85.7806 192.795 87.6686C194.005 89.5566 195.675 91.0089 197.805 92.0255C199.984 93.0421 202.501 93.5504 205.357 93.5504C208.116 93.5504 210.44 93.0663 212.328 92.0981C214.264 91.0815 215.765 89.6292 216.83 87.7412C217.329 86.8951 217.741 85.9615 218.065 84.9404ZM216.394 77.9382V74.2349H208.189C205.865 74.2349 204.074 74.8158 202.815 75.9776C201.605 77.091 201 78.5433 201 80.3345C201 82.1257 201.605 83.578 202.815 84.6914C204.074 85.8048 205.865 86.3615 208.189 86.3615C209.593 86.3615 210.876 86.1195 212.038 85.6354C213.248 85.1029 214.24 84.2315 215.015 83.0213C215.838 81.7626 216.298 80.0683 216.394 77.9382Z" fill="white"/>
<path d="M235.121 92.5338V52.523H245.215V92.5338H235.121Z" fill="white"/>
<path d="M253.216 52.523V92.5338H263.31V69.3697C263.31 66.8039 264.06 64.7707 265.561 63.27C267.11 61.7209 269.119 60.9463 271.588 60.9463C274.009 60.9463 275.897 61.6967 277.252 63.1974C278.656 64.6981 279.358 66.6587 279.358 69.0792V92.5338H289.451V69.9506C289.451 63.9477 288.241 59.4456 285.821 56.4442C283.4 53.3944 279.842 51.8695 275.146 51.8695H274.711C271.564 51.8695 268.926 52.5472 266.795 53.9027C264.714 55.2582 263.141 57.2914 262.076 60.0023C261.729 60.8698 261.438 61.8092 261.204 62.8205V52.523H253.216Z" fill="white"/>
<path d="M30.6064 75.836C30.6064 79.3791 33.4793 82.2527 37.0231 82.2527C40.5669 82.2527 43.4398 79.3791 43.4398 75.836C43.4398 73.2382 39.6731 70.7943 39.6731 66.211C39.6731 62.086 43.4398 59.1838 43.4398 56.586C43.4398 53.0429 40.5669 50.1693 37.0231 50.1693C33.4793 50.1693 30.6064 53.0429 30.6064 56.586C30.6064 59.1838 34.3732 62.086 34.3731 66.211C34.3731 70.336 30.6064 73.2382 30.6064 75.836Z" fill="#22DFFD"/>
<path d="M61.7723 36.4167C61.7723 32.8735 64.6451 30 68.1889 30C71.7327 30 74.6056 32.8735 74.6056 36.4167C74.6056 37.5324 73.9107 38.6198 73.1179 39.8605C72.0648 41.5084 70.8389 43.4269 70.8389 46.0417C70.8389 48.3415 72.0098 50.2613 73.0459 51.9601C73.8682 53.3082 74.6056 54.5172 74.6056 55.6667C74.6056 55.8207 74.6002 55.9735 74.5895 56.1249C74.6002 56.2763 74.6056 56.4291 74.6056 56.5832C74.6056 57.6989 73.9107 58.7863 73.1179 60.027C72.0648 61.6749 70.8389 63.5934 70.8389 66.2082C70.8389 68.508 72.0098 70.4278 73.0459 72.1266C73.8682 73.4747 74.6056 74.6838 74.6056 75.8332C74.6056 75.9873 74.6002 76.1401 74.5895 76.2915C74.6002 76.4429 74.6056 76.5957 74.6056 76.7498C74.6056 77.8993 73.8682 79.1083 73.0459 80.4564C72.0098 82.1552 70.8389 84.075 70.8389 86.3748C70.8389 88.9896 72.0648 90.9081 73.1179 92.556C73.9107 93.7967 74.6056 94.8841 74.6056 95.9998C74.6056 99.543 71.7327 102.417 68.1889 102.417C64.6451 102.417 61.7723 99.543 61.7723 95.9998C61.7723 94.8504 62.5097 93.6414 63.3319 92.2933C64.3681 90.5944 65.539 88.6747 65.539 86.3748C65.539 84.075 64.3681 82.1552 63.3319 80.4564C62.5097 79.1083 61.7723 77.8993 61.7723 76.7498C61.7723 76.5957 61.7777 76.4429 61.7884 76.2915C61.7777 76.1401 61.7723 75.9873 61.7723 75.8332C61.7723 74.6837 62.5097 73.4747 63.3319 72.1266C64.3681 70.4278 65.539 68.508 65.539 66.2082C65.539 63.9083 64.3681 61.9886 63.3319 60.2897C62.5097 58.9416 61.7723 57.7326 61.7723 56.5832C61.7723 56.4291 61.7777 56.2763 61.7884 56.1249C61.7777 55.9736 61.7723 55.8207 61.7723 55.6667C61.7723 54.5172 62.5097 53.3082 63.3319 51.9601C64.3681 50.2613 65.539 48.3415 65.539 46.0417C65.539 43.7418 64.3681 41.8221 63.3319 40.1232C62.5097 38.7751 61.7723 37.5661 61.7723 36.4167Z" fill="#22DFFD"/>
<path d="M52.6054 92.3347C49.0616 92.3347 46.1888 89.4612 46.1888 85.918C46.1888 84.7686 46.9262 83.5596 47.7484 82.2114C48.7846 80.5126 49.9555 78.5929 49.9555 76.293C49.9555 73.9932 48.7846 72.0734 47.7484 70.3746C46.9262 69.0264 46.1888 67.8174 46.1888 66.668C46.1888 66.5139 46.1942 66.3611 46.2049 66.2097C46.1942 66.0583 46.1888 65.9055 46.1888 65.7514C46.1888 64.6019 46.9262 63.3929 47.7484 62.0448C48.7846 60.346 49.9555 58.4262 49.9555 56.1264C49.9555 53.8265 48.7846 51.9067 47.7484 50.2079C46.9262 48.8598 46.1888 47.6508 46.1888 46.5014C46.1888 42.9582 49.0616 40.0847 52.6054 40.0847C56.1492 40.0847 59.0221 42.9582 59.0221 46.5014C59.0221 47.6171 58.3273 48.7045 57.5344 49.9452C56.4813 51.5931 55.2554 53.5116 55.2554 56.1264C55.2554 58.4262 56.4263 60.346 57.4624 62.0448C58.2847 63.3929 59.0221 64.6019 59.0221 65.7514C59.0221 65.9054 59.0167 66.0583 59.006 66.2096C59.0167 66.361 59.0221 66.5139 59.0221 66.668C59.0221 67.8174 58.2847 69.0265 57.4624 70.3746C56.4263 72.0734 55.2554 73.9932 55.2554 76.293C55.2554 78.9078 56.4813 80.8262 57.5344 82.4742C58.3273 83.7149 59.0221 84.8022 59.0221 85.918C59.0221 89.4612 56.1492 92.3347 52.6054 92.3347Z" fill="#22DFFD"/>
</svg>
