<svg width="584" height="227" viewBox="0 0 584 227" fill="none" xmlns="http://www.w3.org/2000/svg">
<path fill-rule="evenodd" clip-rule="evenodd" d="M255.712 145.887L229.7 104.964H217.865V145.887H209.239V50H239.664C242.918 50 245.971 50.6241 248.824 51.8723C251.677 53.0759 254.174 54.7475 256.313 56.8873C258.453 59.027 260.125 61.5457 261.328 64.4432C262.577 67.2962 263.201 70.3498 263.201 73.604V81.3605C263.201 84.6147 262.577 87.6905 261.328 90.5881C260.125 93.4411 258.453 95.9374 256.313 98.0772C254.174 100.217 251.677 101.911 248.824 103.159C245.971 104.363 242.918 104.964 239.664 104.964L265.675 145.887H255.712ZM254.575 73.604C254.575 71.4642 254.174 69.4805 253.371 67.6528C252.569 65.7805 251.477 64.1535 250.095 62.7715C248.713 61.3451 247.086 60.2306 245.214 59.4282C243.386 58.6258 241.402 58.2246 239.262 58.2246H217.865V96.7398H239.262C241.402 96.7398 243.386 96.3386 245.214 95.5362C247.086 94.7338 248.713 93.6417 250.095 92.2598C251.477 90.8333 252.569 89.2062 253.371 87.3785C254.174 85.5062 254.575 83.5002 254.575 81.3605V73.604Z" fill="white"/>
<path fill-rule="evenodd" clip-rule="evenodd" d="M318.339 127.097C318.339 129.861 317.804 132.469 316.734 134.921C315.709 137.373 314.282 139.512 312.455 141.34C310.627 143.168 308.487 144.616 306.036 145.686C303.584 146.712 300.976 147.224 298.212 147.224H292.729C289.965 147.224 287.357 146.712 284.906 145.686C282.454 144.616 280.314 143.168 278.486 141.34C276.659 139.512 275.21 137.373 274.14 134.921C273.115 132.469 272.602 129.861 272.602 127.097V96.2049C272.602 93.4411 273.115 90.8333 274.14 88.3815C275.21 85.9297 276.659 83.79 278.486 81.9623C280.314 80.1346 282.454 78.7081 284.906 77.6828C287.357 76.613 289.965 76.078 292.729 76.078H298.212C300.976 76.078 303.584 76.613 306.036 77.6828C308.487 78.7081 310.627 80.1346 312.455 81.9623C314.282 83.79 315.709 85.9297 316.734 88.3815C317.804 90.8333 318.339 93.4411 318.339 96.2049V127.097ZM310.114 95.7368C310.114 94.0875 309.802 92.5495 309.178 91.123C308.554 89.652 307.707 88.3815 306.637 87.3116C305.567 86.2418 304.297 85.3948 302.826 84.7707C301.399 84.1466 299.862 83.8346 298.212 83.8346H292.729C291.08 83.8346 289.519 84.1466 288.048 84.7707C286.622 85.3948 285.374 86.2418 284.304 87.3116C283.234 88.3815 282.387 89.652 281.763 91.123C281.139 92.5495 280.827 94.0875 280.827 95.7368V127.565C280.827 129.215 281.139 130.775 281.763 132.246C282.387 133.673 283.234 134.921 284.304 135.991C285.374 137.06 286.622 137.907 288.048 138.532C289.519 139.156 291.08 139.468 292.729 139.468H298.212C299.862 139.468 301.399 139.156 302.826 138.532C304.297 137.907 305.567 137.06 306.637 135.991C307.707 134.921 308.554 133.673 309.178 132.246C309.802 130.775 310.114 129.215 310.114 127.565V95.7368Z" fill="white"/>
<path fill-rule="evenodd" clip-rule="evenodd" d="M372.073 134.921C373.143 132.469 373.678 129.861 373.678 127.097V96.2049C373.678 93.4411 373.143 90.8333 372.073 88.3815C371.048 85.9297 369.621 83.79 367.794 81.9623C365.966 80.1346 363.826 78.7081 361.374 77.6828C358.923 76.613 356.315 76.078 353.551 76.078H351.478C348.402 76.078 345.549 76.7021 342.919 77.9503C340.289 79.1985 338.038 80.937 336.166 83.1659V50H327.941V127.097C327.941 129.861 328.454 132.469 329.479 134.921C330.549 137.373 331.998 139.512 333.825 141.34C335.653 143.168 337.793 144.616 340.245 145.686C342.696 146.712 345.304 147.224 348.068 147.224H353.551C356.315 147.224 358.923 146.712 361.374 145.686C363.826 144.616 365.966 143.168 367.794 141.34C369.621 139.512 371.048 137.373 372.073 134.921ZM364.517 91.123C365.141 92.5495 365.453 94.0875 365.453 95.7368V127.565C365.453 129.215 365.141 130.775 364.517 132.246C363.893 133.673 363.046 134.921 361.976 135.991C360.906 137.06 359.636 137.907 358.165 138.532C356.738 139.156 355.2 139.468 353.551 139.468H348.068C346.419 139.468 344.858 139.156 343.387 138.532C341.961 137.907 340.713 137.06 339.643 135.991C338.573 134.921 337.726 133.673 337.102 132.246C336.478 130.775 336.166 129.215 336.166 127.565V95.7368C336.166 94.0875 336.478 92.5495 337.102 91.123C337.726 89.652 338.573 88.3815 339.643 87.3116C340.713 86.2418 341.961 85.3948 343.387 84.7707C344.858 84.1466 346.419 83.8346 348.068 83.8346H353.551C355.2 83.8346 356.738 84.1466 358.165 84.7707C359.636 85.3948 360.906 86.2418 361.976 87.3116C363.046 88.3815 363.893 89.652 364.517 91.123Z" fill="white"/>
<path fill-rule="evenodd" clip-rule="evenodd" d="M429.017 127.097C429.017 129.861 428.482 132.469 427.412 134.921C426.387 137.373 424.96 139.512 423.133 141.34C421.305 143.168 419.165 144.616 416.713 145.686C414.262 146.712 411.654 147.224 408.89 147.224H403.407C400.643 147.224 398.035 146.712 395.583 145.686C393.132 144.616 390.992 143.168 389.164 141.34C387.337 139.512 385.888 137.373 384.818 134.921C383.793 132.469 383.28 129.861 383.28 127.097V96.2049C383.28 93.4411 383.793 90.8333 384.818 88.3815C385.888 85.9297 387.337 83.79 389.164 81.9623C390.992 80.1346 393.132 78.7081 395.583 77.6828C398.035 76.613 400.643 76.078 403.407 76.078H408.89C411.654 76.078 414.262 76.613 416.713 77.6828C419.165 78.7081 421.305 80.1346 423.133 81.9623C424.96 83.79 426.387 85.9297 427.412 88.3815C428.482 90.8333 429.017 93.4411 429.017 96.2049V127.097ZM420.792 95.7368C420.792 94.0875 420.48 92.5495 419.856 91.123C419.232 89.652 418.385 88.3815 417.315 87.3116C416.245 86.2418 414.975 85.3948 413.504 84.7707C412.077 84.1466 410.539 83.8346 408.89 83.8346H403.407C401.758 83.8346 400.197 84.1466 398.726 84.7707C397.3 85.3948 396.052 86.2418 394.982 87.3116C393.912 88.3815 393.065 89.652 392.441 91.123C391.817 92.5495 391.505 94.0875 391.505 95.7368V127.565C391.505 129.215 391.817 130.775 392.441 132.246C393.065 133.673 393.912 134.921 394.982 135.991C396.052 137.06 397.3 137.907 398.726 138.532C400.197 139.156 401.758 139.468 403.407 139.468H408.89C410.539 139.468 412.077 139.156 413.504 138.532C414.975 137.907 416.245 137.06 417.315 135.991C418.385 134.921 419.232 133.673 419.856 132.246C420.48 130.775 420.792 129.215 420.792 127.565V95.7368Z" fill="white"/>
<path d="M456.472 144.483C458.701 145.419 461.064 145.887 463.56 145.887H471.049V138.063H463.56C462.178 138.063 460.886 137.818 459.682 137.328C458.478 136.793 457.431 136.08 456.539 135.188C455.648 134.297 454.934 133.271 454.399 132.112C453.909 130.909 453.664 129.616 453.664 128.234V85.2388H471.049V77.4154H453.664V59.6288L445.439 60.9661V77.4154H433.136V85.2388H445.439V127.833C445.439 130.329 445.907 132.67 446.844 134.854C447.824 137.038 449.117 138.955 450.722 140.604C452.371 142.254 454.288 143.547 456.472 144.483Z" fill="white"/>
<path d="M504.322 106.034L524.048 145.887H533.343L508.936 96.6061L531.938 50H522.644L504.322 87.111L485.934 50H476.64L499.642 96.6061L475.235 145.887H484.597L504.322 106.034Z" fill="white"/>
<path fill-rule="evenodd" clip-rule="evenodd" d="M116.986 50C100.581 50 86.2362 56.4339 75.1097 64.2176C64.0009 71.9889 55.7798 81.3237 51.5145 87.7366C50.6134 89.0915 50.4279 90.8001 51.0173 92.3168L72.8548 148.507L59.8494 170.997L68.5061 176.003L82.7129 151.436C83.4723 150.122 83.5945 148.535 83.0449 147.121L61.3078 91.1894C65.261 85.8418 72.014 78.5872 80.8419 72.4116C90.8629 65.4013 103.236 60 116.986 60C129.982 60 139.43 63.3458 146.331 68.4564C153.264 73.591 158.004 80.7881 161.07 89.0914C166.697 104.332 166.44 122.672 164.159 136.292H120.476L113.044 116.067C118.252 112.363 121.678 106.369 121.678 99.5C121.678 88.0297 112.125 79 100.678 79C89.2306 79 79.6777 88.0297 79.6777 99.5C79.6777 110.97 89.2306 120 100.678 120C101.721 120 102.749 119.925 103.755 119.78L112.293 143.017C113.016 144.984 114.89 146.292 116.986 146.292H168.303C170.668 146.292 172.709 144.636 173.196 142.322C176.334 127.416 177.531 104.804 170.451 85.6277C166.879 75.9535 161.128 66.9708 152.282 60.4201C143.404 53.8452 131.783 50 116.986 50ZM89.6777 99.5C89.6777 93.8495 94.4518 89 100.678 89C106.904 89 111.678 93.8495 111.678 99.5C111.678 105.151 106.904 110 100.678 110C94.4518 110 89.6777 105.151 89.6777 99.5Z" fill="#22DFFD"/>
</svg>
