<svg width="446" height="151" viewBox="0 0 446 151" fill="none" xmlns="http://www.w3.org/2000/svg">
<path d="M172.747 39.9879H187.158L171.454 107.575H146.109L130.405 39.9879H144.817L156.546 95.6477H161.018L172.747 39.9879Z" fill="black"/>
<path d="M200.899 88.392C200.965 91.4401 201.76 93.6598 203.284 95.0513C204.874 96.3766 207.127 97.0392 210.043 97.0392C216.205 97.0392 221.705 96.8404 226.542 96.4428L229.325 96.1447L229.524 105.985C221.904 107.84 215.012 108.768 208.85 108.768C201.363 108.768 195.929 106.78 192.55 102.804C189.17 98.8283 187.481 92.3677 187.481 83.4224C187.481 65.598 194.803 56.6858 209.446 56.6858C223.891 56.6858 231.114 64.1734 231.114 79.1485L230.12 88.392H200.899ZM217.994 78.254C217.994 74.2783 217.365 71.5284 216.106 70.0044C214.847 68.4141 212.627 67.619 209.446 67.619C206.332 67.619 204.112 68.4473 202.787 70.1038C201.528 71.6941 200.866 74.4108 200.799 78.254H217.994Z" fill="black"/>
<path d="M238.645 107.575V57.8785H251.864V63.1463C257.43 59.8332 262.731 57.6797 267.767 56.6858V70.1038C262.399 71.2303 257.794 72.3898 253.951 73.5825L251.963 74.2783V107.575H238.645Z" fill="black"/>
<path d="M301.169 69.2093H288.944V89.5847C288.944 91.5726 288.977 92.9972 289.044 93.8586C289.176 94.6538 289.541 95.3495 290.137 95.9459C290.8 96.5422 291.793 96.8404 293.119 96.8404L300.673 96.6416L301.269 107.277C296.829 108.271 293.45 108.768 291.131 108.768C285.167 108.768 281.092 107.442 278.906 104.792C276.719 102.075 275.626 97.1054 275.626 89.8829V69.2093H269.761V57.8785H275.626V44.0629H288.944V57.8785H301.169V69.2093Z" fill="black"/>
<path d="M307.854 107.575V57.8785H321.173V107.575H307.854ZM307.854 51.5174V38H321.173V51.5174H307.854Z" fill="black"/>
<path d="M376.516 113.737C376.516 119.436 374.329 123.643 369.956 126.36C365.583 129.077 359.652 130.435 352.165 130.435C344.744 130.435 339.012 129.441 334.97 127.453C330.994 125.465 329.006 121.854 329.006 116.62C329.006 112.445 331.392 108.502 336.163 104.792C333.711 103.135 332.485 100.617 332.485 97.238C332.485 95.9127 333.479 93.7261 335.467 90.6781L336.361 89.2866C331.856 86.0397 329.603 81.2689 329.603 74.974C329.603 68.6129 331.491 64.0077 335.268 61.1585C339.111 58.3092 344.18 56.8846 350.475 56.8846C353.324 56.8846 356.141 57.2159 358.924 57.8785L360.514 58.1767L376.516 57.6797V68.3147L369.062 67.7184C370.519 69.9713 371.248 72.2242 371.248 74.4771C371.248 81.1032 369.559 85.6753 366.179 88.1932C362.8 90.7112 357.499 91.9702 350.276 91.9702C348.752 91.9702 347.394 91.8376 346.201 91.5726C345.539 93.2954 345.207 94.72 345.207 95.8465C345.207 96.9067 345.771 97.6355 346.897 98.0331C348.023 98.4307 350.674 98.6626 354.848 98.7289C363.197 98.7951 368.896 99.9216 371.944 102.108C374.992 104.229 376.516 108.105 376.516 113.737ZM342.126 115.228C342.126 118.077 345.605 119.502 352.562 119.502C359.586 119.502 363.098 117.845 363.098 114.532C363.098 112.743 362.502 111.584 361.309 111.054C360.116 110.59 357.598 110.325 353.755 110.258L344.81 109.563C343.021 111.352 342.126 113.24 342.126 115.228ZM342.921 74.5765C342.921 79.4136 345.439 81.8321 350.475 81.8321C355.577 81.8321 358.128 79.4136 358.128 74.5765C358.128 69.6731 355.577 67.2214 350.475 67.2214C345.439 67.2214 342.921 69.6731 342.921 74.5765Z" fill="black"/>
<path d="M385.28 63.5439C388.792 58.9718 394.656 56.6858 402.873 56.6858C411.089 56.6858 416.954 58.9718 420.465 63.5439C423.977 68.0497 425.733 74.4108 425.733 82.6273C425.733 100.054 418.113 108.768 402.873 108.768C387.633 108.768 380.013 100.054 380.013 82.6273C380.013 74.4108 381.769 68.0497 385.28 63.5439ZM395.518 93.8586C396.909 96.244 399.361 97.4368 402.873 97.4368C406.385 97.4368 408.803 96.244 410.129 93.8586C411.52 91.4732 412.216 87.7294 412.216 82.6273C412.216 77.5251 411.52 73.8145 410.129 71.4953C408.803 69.1761 406.385 68.0166 402.873 68.0166C399.361 68.0166 396.909 69.1761 395.518 71.4953C394.193 73.8145 393.53 77.5251 393.53 82.6273C393.53 87.7294 394.193 91.4732 395.518 93.8586Z" fill="black"/>
<path fill-rule="evenodd" clip-rule="evenodd" d="M79.8884 36.1971C73.9365 33.7317 67.4972 32.6686 61.0688 33.0899C54.6403 33.5113 48.3949 35.4058 42.8157 38.6269L37.1865 41.8769L30.6865 30.6186L36.3157 27.3686C43.6218 23.1505 51.8003 20.6695 60.2185 20.1178C68.6368 19.566 77.0691 20.9582 84.8633 24.1866C92.6574 27.4151 99.6044 32.3932 105.167 38.736C110.729 45.0787 114.758 52.6161 116.942 60.765C119.125 68.9138 119.405 77.4558 117.759 85.73C116.113 94.0042 112.586 101.789 107.45 108.482C102.314 115.175 95.7079 120.597 88.1416 124.328C80.5753 128.059 70.8159 130 63.8157 130C56.8154 130 52.7279 128.95 47.36 126.727C42.143 124.566 37.4028 121.399 33.4098 117.406C29.4169 113.413 26.2496 108.672 24.0886 103.455C21.9277 98.2384 20.8154 92.6468 20.8154 87C20.8154 81.3532 21.9277 75.7616 24.0886 70.5446C26.2496 65.3276 29.4169 60.5873 33.4098 56.5944C37.4028 52.6015 42.143 49.4341 47.36 47.2732C52.577 45.1122 58.1686 44 63.8154 44C69.4623 44 75.0538 45.1122 80.2708 47.2732C85.4878 49.4341 90.2281 52.6015 94.221 56.5944C98.2139 60.5873 101.381 65.3276 103.542 70.5446C104.472 72.7887 105.207 75.102 105.744 77.4593C106.006 72.9843 105.551 68.4835 104.385 64.1296C102.717 57.9068 99.6407 52.151 95.393 47.3075C91.1453 42.4639 85.8403 38.6624 79.8884 36.1971ZM37.8528 102.031C38.5901 88.0555 50.1559 76.9502 64.3154 76.9502C77.9276 76.9502 89.1427 87.2135 90.6445 100.424C90.9628 99.7877 91.2588 99.1396 91.5318 98.4805C93.0395 94.8407 93.8154 90.9397 93.8154 87C93.8154 83.0604 93.0395 79.1593 91.5318 75.5195C90.0242 71.8797 87.8144 68.5726 85.0286 65.7868C82.2429 63.001 78.9357 60.7913 75.2959 59.2836C71.6562 57.776 67.7551 57 63.8154 57C59.8758 57 55.9747 57.776 52.3349 59.2836C48.6952 60.7913 45.388 63.001 42.6022 65.7868C39.8165 68.5726 37.6067 71.8797 36.099 75.5195C34.5914 79.1593 33.8154 83.0603 33.8154 87C33.8154 90.9397 34.5914 94.8407 36.099 98.4805C36.6059 99.7041 37.192 100.89 37.8528 102.031ZM77.8154 103.45C77.8154 110.906 71.7713 116.95 64.3154 116.95C56.8596 116.95 50.8154 110.906 50.8154 103.45C50.8154 95.9944 56.8596 89.9502 64.3154 89.9502C71.7713 89.9502 77.8154 95.9944 77.8154 103.45Z" fill="#0090F1"/>
</svg>
